<svg width="23" height="23" viewBox="0 0 23 23" fill="none" xmlns="http://www.w3.org/2000/svg">
<g clip-path="url(#clip0_112_547)">
<path d="M5.76237 0.000360776C2.58672 0.000360776 0 2.58736 0 5.76291V17.2375C0 20.413 2.58635 23 5.76237 23H17.2373C20.4129 23 23 20.413 23 17.2375V5.76255C23 2.587 20.4129 0 17.2373 0L5.76237 0.000360776ZM5.76237 1.9257H17.2373C19.3798 1.9257 21.075 3.62041 21.075 5.76291V17.2375C21.075 19.38 19.3798 21.0743 17.2373 21.0743H5.76237C3.6198 21.0743 1.92503 19.38 1.92503 17.2375V5.76255C1.92503 3.62005 3.6198 1.9257 5.76237 1.9257ZM11.7263 4.86045C11.4711 4.86409 11.2278 4.9689 11.0499 5.15184C10.872 5.33478 10.7741 5.58088 10.7776 5.83603V10.4746H6.13959C6.01101 10.471 5.88303 10.4933 5.7632 10.5401C5.64338 10.5868 5.53414 10.6571 5.44195 10.7468C5.34975 10.8365 5.27647 10.9438 5.22643 11.0623C5.17639 11.1808 5.15061 11.3081 5.15061 11.4367C5.15061 11.5653 5.17639 11.6927 5.22643 11.8111C5.27647 11.9296 5.34975 12.0369 5.44195 12.1266C5.53414 12.2163 5.64338 12.2866 5.7632 12.3333C5.88303 12.3801 6.01101 12.4024 6.13959 12.3988H10.7776V17.0367C10.7751 17.1647 10.7981 17.2919 10.8454 17.4108C10.8927 17.5298 10.9632 17.6382 11.0528 17.7296C11.1425 17.821 11.2494 17.8936 11.3675 17.9431C11.4855 17.9927 11.6122 18.0182 11.7403 18.0182C11.8683 18.0182 11.995 17.9927 12.1131 17.9431C12.2311 17.8936 12.3381 17.821 12.4277 17.7296C12.5173 17.6382 12.5879 17.5298 12.6351 17.4108C12.6824 17.2919 12.7055 17.1647 12.703 17.0367V12.3988H17.3409C17.4695 12.4024 17.5975 12.3801 17.7173 12.3333C17.8371 12.2866 17.9464 12.2163 18.0386 12.1266C18.1308 12.0369 18.2041 11.9296 18.2541 11.8111C18.3041 11.6927 18.3299 11.5653 18.3299 11.4367C18.3299 11.3081 18.3041 11.1808 18.2541 11.0623C18.2041 10.9438 18.1308 10.8365 18.0386 10.7468C17.9464 10.6571 17.8371 10.5868 17.7173 10.5401C17.5975 10.4933 17.4695 10.471 17.3409 10.4746H12.703V5.83603C12.7047 5.70733 12.6807 5.57959 12.6322 5.46036C12.5837 5.34112 12.5118 5.23282 12.4208 5.14186C12.3297 5.0509 12.2213 4.97914 12.102 4.9308C11.9827 4.88246 11.855 4.85854 11.7263 4.86045Z" fill="#2B2B2B"/>
</g>
<defs>
<clipPath id="clip0_112_547">
<rect width="23" height="23" fill="white"/>
</clipPath>
</defs>
</svg>
