<svg width="25" height="25" viewBox="0 0 25 25" fill="none" xmlns="http://www.w3.org/2000/svg">
<path d="M14.4 13.579H13.2V12.4211C13.2 12.114 13.0736 11.8195 12.8485 11.6023C12.6235 11.3852 12.3183 11.2632 12 11.2632C11.6817 11.2632 11.3765 11.3852 11.1515 11.6023C10.9264 11.8195 10.8 12.114 10.8 12.4211V13.579H9.6C9.28174 13.579 8.97652 13.701 8.75147 13.9181C8.52643 14.1352 8.4 14.4298 8.4 14.7369C8.4 15.0439 8.52643 15.3385 8.75147 15.5556C8.97652 15.7728 9.28174 15.8947 9.6 15.8947H10.8V17.0526C10.8 17.3597 10.9264 17.6542 11.1515 17.8714C11.3765 18.0885 11.6817 18.2105 12 18.2105C12.3183 18.2105 12.6235 18.0885 12.8485 17.8714C13.0736 17.6542 13.2 17.3597 13.2 17.0526V15.8947H14.4C14.7183 15.8947 15.0235 15.7728 15.2485 15.5556C15.4736 15.3385 15.6 15.0439 15.6 14.7369C15.6 14.4298 15.4736 14.1352 15.2485 13.9181C15.0235 13.701 14.7183 13.579 14.4 13.579ZM20.4 5.47371H12.864L12.48 4.31581C12.2311 3.6364 11.7693 3.0485 11.1587 2.63358C10.5481 2.21866 9.81883 1.99725 9.072 2.00003H3.6C2.64522 2.00003 1.72955 2.366 1.05442 3.01744C0.379285 3.66888 0 4.55243 0 5.47371V20.5263C0 21.4476 0.379285 22.3311 1.05442 22.9826C1.72955 23.634 2.64522 24 3.6 24H20.4C21.3548 24 22.2705 23.634 22.9456 22.9826C23.6207 22.3311 24 21.4476 24 20.5263V8.94739C24 8.02611 23.6207 7.14256 22.9456 6.49112C22.2705 5.83968 21.3548 5.47371 20.4 5.47371ZM21.6 20.5263C21.6 20.8334 21.4736 21.1279 21.2485 21.3451C21.0235 21.5622 20.7183 21.6842 20.4 21.6842H3.6C3.28174 21.6842 2.97652 21.5622 2.75147 21.3451C2.52643 21.1279 2.4 20.8334 2.4 20.5263V5.47371C2.4 5.16661 2.52643 4.8721 2.75147 4.65495C2.97652 4.4378 3.28174 4.31581 3.6 4.31581H9.072C9.32357 4.31519 9.56899 4.39087 9.77355 4.53216C9.97812 4.67345 10.1315 4.8732 10.212 5.10318L10.86 7.00213C10.9405 7.23211 11.0939 7.43186 11.2984 7.57315C11.503 7.71444 11.7484 7.79012 12 7.78949H20.4C20.7183 7.78949 21.0235 7.91148 21.2485 8.12863C21.4736 8.34578 21.6 8.64029 21.6 8.94739V20.5263Z" fill="#2B2B2B"/>
</svg>
