<svg width="28" height="28" viewBox="0 0 28 28" fill="none" xmlns="http://www.w3.org/2000/svg">
<path d="M23.2969 15.6904V11.2275C23.2948 9.23901 22.5523 7.31538 21.2011 5.79729C19.8498 4.2792 17.9769 3.2646 15.9141 2.93319V1.40344C15.9141 1.03122 15.7585 0.674253 15.4816 0.411058C15.2047 0.147862 14.8291 0 14.4375 0C14.0459 0 13.6703 0.147862 13.3934 0.411058C13.1165 0.674253 12.9609 1.03122 12.9609 1.40344V2.93319C10.8981 3.2646 9.0252 4.2792 7.67394 5.79729C6.32268 7.31538 5.58025 9.23901 5.57812 11.2275V15.6904C4.71648 15.98 3.97015 16.5158 3.44145 17.2243C2.91275 17.9329 2.62757 18.7795 2.625 19.6481V22.455C2.625 22.8272 2.78057 23.1842 3.05748 23.4474C3.33438 23.7106 3.70995 23.8585 4.10156 23.8585H8.73797C9.078 25.0477 9.82029 26.0975 10.8503 26.846C11.8804 27.5945 13.1409 28 14.4375 28C15.7341 28 16.9946 27.5945 18.0247 26.846C19.0547 26.0975 19.797 25.0477 20.137 23.8585H24.7734C25.165 23.8585 25.5406 23.7106 25.8175 23.4474C26.0944 23.1842 26.25 22.8272 26.25 22.455V19.6481C26.2474 18.7795 25.9622 17.9329 25.4336 17.2243C24.9049 16.5158 24.1585 15.98 23.2969 15.6904ZM8.53125 11.2275C8.53125 9.73865 9.15351 8.31077 10.2612 7.25798C11.3688 6.2052 12.8711 5.61375 14.4375 5.61375C16.0039 5.61375 17.5062 6.2052 18.6138 7.25798C19.7215 8.31077 20.3437 9.73865 20.3438 11.2275V15.4378H8.53125V11.2275ZM14.4375 25.2619C13.9221 25.2589 13.4166 25.1278 12.971 24.8816C12.5255 24.6354 12.1555 24.2827 11.8978 23.8585H16.9772C16.7195 24.2827 16.3495 24.6354 15.904 24.8816C15.4584 25.1278 14.9529 25.2589 14.4375 25.2619ZM23.2969 21.0516H5.57812V19.6481C5.57812 19.2759 5.73369 18.919 6.0106 18.6558C6.28751 18.3926 6.66308 18.2447 7.05469 18.2447H21.8203C22.2119 18.2447 22.5875 18.3926 22.8644 18.6558C23.1413 18.919 23.2969 19.2759 23.2969 19.6481V21.0516Z" fill="#2B2B2B"/>
</svg>
