<svg width="19" height="20" viewBox="0 0 19 20" fill="none" xmlns="http://www.w3.org/2000/svg">
<g clip-path="url(#clip0_112_519)">
<path d="M15.2 0H3.79995C3.04408 0 2.31918 0.31607 1.7847 0.878679C1.25022 1.44129 0.949951 2.20435 0.949951 3V14C0.949951 14.7956 1.25022 15.5587 1.7847 16.1213C2.31918 16.6839 3.04408 17 3.79995 17H6.26045L8.82545 19.71C8.91422 19.8027 9.0195 19.876 9.13524 19.9258C9.25099 19.9755 9.37493 20.0007 9.49995 20C9.72638 20 9.94537 19.9149 10.1175 19.76L13.1765 17H15.2C15.9558 17 16.6807 16.6839 17.2152 16.1213C17.7497 15.5587 18.05 14.7956 18.05 14V3C18.05 2.20435 17.7497 1.44129 17.2152 0.878679C16.6807 0.31607 15.9558 0 15.2 0ZM16.15 14C16.15 14.2652 16.0499 14.5196 15.8717 14.7071C15.6935 14.8946 15.4519 15 15.2 15H12.825C12.5985 15 12.3795 15.0851 12.2075 15.24L9.54745 17.64L7.32445 15.29C7.23568 15.1973 7.13041 15.124 7.01466 15.0742C6.89892 15.0245 6.77498 14.9992 6.64995 15H3.79995C3.548 15 3.30636 14.8946 3.1282 14.7071C2.95004 14.5196 2.84995 14.2652 2.84995 14V3C2.84995 2.73478 2.95004 2.48043 3.1282 2.29289C3.30636 2.10536 3.548 2 3.79995 2H15.2C15.4519 2 15.6935 2.10536 15.8717 2.29289C16.0499 2.48043 16.15 2.73478 16.15 3V14Z" fill="#2B2B2B"/>
</g>
<defs>
<clipPath id="clip0_112_519">
<rect width="19" height="20" fill="white"/>
</clipPath>
</defs>
</svg>
