<svg width="24" height="24" viewBox="0 0 24 24" fill="none" xmlns="http://www.w3.org/2000/svg">
<g clip-path="url(#clip0_112_537)">
<path d="M22.0392 7.22008L14.5099 0.915623C13.8197 0.325982 12.9261 0 12.0001 0C11.0741 0 10.1805 0.325982 9.4903 0.915623L1.96094 7.22008C1.56235 7.56056 1.24428 7.97824 1.0279 8.44531C0.811517 8.91237 0.701801 9.41811 0.706052 9.92884V20.4043C0.706052 21.3579 1.10269 22.2725 1.8087 22.9468C2.51471 23.6212 3.47228 24 4.47073 24H19.5294C20.5279 24 21.4855 23.6212 22.1915 22.9468C22.8975 22.2725 23.2941 21.3579 23.2941 20.4043V9.91685C23.2966 9.40814 23.186 8.90471 22.9697 8.43984C22.7534 7.97496 22.4362 7.55922 22.0392 7.22008ZM14.5099 21.6029H9.4903V15.61C9.4903 15.2922 9.62251 14.9873 9.85785 14.7625C10.0932 14.5378 10.4124 14.4115 10.7452 14.4115H13.255C13.5878 14.4115 13.907 14.5378 14.1423 14.7625C14.3777 14.9873 14.5099 15.2922 14.5099 15.61V21.6029ZM20.7843 20.4043C20.7843 20.7222 20.6521 21.027 20.4168 21.2518C20.1815 21.4766 19.8623 21.6029 19.5294 21.6029H17.0197V15.61C17.0197 14.6564 16.623 13.7418 15.917 13.0675C15.211 12.3932 14.2534 12.0143 13.255 12.0143H10.7452C9.74674 12.0143 8.78918 12.3932 8.08317 13.0675C7.37715 13.7418 6.98052 14.6564 6.98052 15.61V21.6029H4.47073C4.13791 21.6029 3.81873 21.4766 3.58339 21.2518C3.34805 21.027 3.21584 20.7222 3.21584 20.4043V9.91685C3.21606 9.74667 3.25423 9.57849 3.3278 9.4235C3.40136 9.2685 3.50864 9.13025 3.6425 9.01793L11.1719 2.72546C11.4009 2.5333 11.6953 2.42733 12.0001 2.42733C12.3049 2.42733 12.5993 2.5333 12.8283 2.72546L20.3577 9.01793C20.4915 9.13025 20.5988 9.2685 20.6724 9.4235C20.7459 9.57849 20.7841 9.74667 20.7843 9.91685V20.4043Z" fill="#2B2B2B"/>
</g>
<defs>
<clipPath id="clip0_112_537">
<rect width="24" height="24" fill="white"/>
</clipPath>
</defs>
</svg>
