<svg width="31" height="31" viewBox="0 0 31 31" fill="none" xmlns="http://www.w3.org/2000/svg">
<path d="M24.6321 6.36793C22.5127 4.23474 19.7155 2.90783 16.7227 2.61595C13.7299 2.32407 10.729 3.08551 8.23743 4.76901C5.74585 6.45251 3.91971 8.95256 3.07383 11.8381C2.22796 14.7237 2.41535 17.814 3.60372 20.5763C3.72758 20.833 3.76822 21.122 3.71997 21.4029L2.5833 26.8667C2.53951 27.0762 2.54845 27.2932 2.60933 27.4984C2.6702 27.7036 2.7811 27.8904 2.93205 28.0421C3.0558 28.1649 3.20314 28.2615 3.36519 28.3258C3.52725 28.3902 3.70065 28.4211 3.87497 28.4167H4.1333L9.66164 27.3058C9.94261 27.2721 10.2275 27.3121 10.4883 27.4221C13.2505 28.6105 16.3408 28.7979 19.2264 27.952C22.112 27.1061 24.6121 25.28 26.2956 22.7884C27.9791 20.2968 28.7405 17.2959 28.4486 14.3031C28.1567 11.3103 26.8298 8.51311 24.6966 6.39376L24.6321 6.36793ZM25.7041 17.1663C25.4516 18.7085 24.8525 20.1733 23.9521 21.4506C23.0516 22.7278 21.8731 23.7842 20.5054 24.5402C19.1376 25.2962 17.6162 25.7321 16.0557 25.8151C14.4951 25.8982 12.936 25.6262 11.4958 25.0196C10.985 24.8023 10.4363 24.6882 9.88122 24.6838C9.63875 24.6855 9.39682 24.7071 9.15789 24.7483L5.51539 25.4846L6.25164 21.8421C6.39827 21.0532 6.30375 20.2385 5.98039 19.5042C5.37381 18.0639 5.1018 16.5049 5.18484 14.9443C5.26788 13.3837 5.70379 11.8624 6.45978 10.4946C7.21577 9.12686 8.27214 7.94841 9.54939 7.04792C10.8266 6.14744 12.2915 5.54838 13.8337 5.29584C15.4525 5.03017 17.1113 5.15372 18.6729 5.6563C20.2345 6.15887 21.654 7.02601 22.814 8.18599C23.974 9.34598 24.8411 10.7655 25.3437 12.3271C25.8463 13.8886 25.9698 15.5474 25.7041 17.1663Z" fill="#2B2B2B"/>
</svg>
