<svg width="28" height="28" viewBox="0 0 28 28" fill="none" xmlns="http://www.w3.org/2000/svg">
<path d="M25.4637 7.96377C25.4646 7.79687 25.4326 7.63143 25.3695 7.47693C25.3064 7.32242 25.2134 7.1819 25.0959 7.0634L19.7191 1.68659C19.6006 1.56906 19.4601 1.47608 19.3056 1.41297C19.1511 1.34986 18.9856 1.31787 18.8187 1.31884C18.6518 1.31787 18.4864 1.34986 18.3319 1.41297C18.1774 1.47608 18.0369 1.56906 17.9184 1.68659L14.3296 5.27536L0.469093 19.1359C0.351562 19.2544 0.258578 19.3949 0.19547 19.5494C0.132363 19.7039 0.100375 19.8693 0.10134 20.0362V25.413C0.10134 25.7494 0.234944 26.0719 0.472762 26.3097C0.71058 26.5476 1.03313 26.6812 1.36946 26.6812H6.74627C6.92371 26.6908 7.1012 26.6631 7.26723 26.5997C7.43326 26.5363 7.58413 26.4388 7.71003 26.3134L21.4945 12.4529L25.0959 8.92753C25.2117 8.80463 25.306 8.66317 25.3749 8.50906C25.3871 8.40797 25.3871 8.30579 25.3749 8.20471C25.3808 8.14568 25.3808 8.0862 25.3749 8.02717L25.4637 7.96377ZM6.22634 24.1449H2.63757V20.5562L15.23 7.96377L18.8187 11.5525L6.22634 24.1449ZM20.6068 9.76449L17.018 6.17572L18.8187 4.38768L22.3948 7.96377L20.6068 9.76449Z" fill="black"/>
</svg>
