<svg width="70" height="23" viewBox="0 0 70 23" fill="none" xmlns="http://www.w3.org/2000/svg">
<g clip-path="url(#clip0_178_418)">
<path d="M20.9166 6.54166C20.9174 6.40457 20.8911 6.26867 20.8393 6.14176C20.7874 6.01485 20.7111 5.89941 20.6145 5.80208L16.1979 1.38541C16.1005 1.28887 15.9851 1.21249 15.8582 1.16065C15.7313 1.10881 15.5954 1.08254 15.4583 1.08333C15.3212 1.08254 15.1853 1.10881 15.0584 1.16065C14.9315 1.21249 14.816 1.28887 14.7187 1.38541L11.7708 4.33333L0.385353 15.7187C0.28881 15.8161 0.212429 15.9315 0.160591 16.0584C0.108753 16.1853 0.0824768 16.3212 0.0832694 16.4583V20.875C0.0832694 21.1513 0.193016 21.4162 0.388366 21.6116C0.583717 21.8069 0.848669 21.9167 1.12494 21.9167H5.5416C5.68736 21.9246 5.83316 21.9018 5.96954 21.8498C6.10592 21.7977 6.22984 21.7176 6.33327 21.6146L17.6562 10.2292L20.6145 7.33333C20.7096 7.23237 20.7871 7.11618 20.8437 6.98958C20.8537 6.90655 20.8537 6.82261 20.8437 6.73958C20.8486 6.69109 20.8486 6.64224 20.8437 6.59375L20.9166 6.54166ZM5.11452 19.8333H2.1666V16.8854L12.5104 6.54166L15.4583 9.48958L5.11452 19.8333ZM16.927 8.02083L13.9791 5.07291L15.4583 3.60416L18.3958 6.54166L16.927 8.02083Z" fill="black"/>
<path d="M26.1369 23V12.5H28.0569V19.955L33.6969 12.5H35.5119V23H33.5919V15.56L27.9519 23H26.1369ZM40.7808 23.135C41.5208 23.135 42.1758 23.03 42.7458 22.82C43.3258 22.61 43.7808 22.32 44.1108 21.95C44.4408 21.57 44.6058 21.135 44.6058 20.645C44.6058 20.035 44.3508 19.555 43.8408 19.205C43.3308 18.845 42.6308 18.665 41.7408 18.665L41.6808 19.07C42.2008 19.07 42.6608 18.985 43.0608 18.815C43.4708 18.645 43.7908 18.41 44.0208 18.11C44.2608 17.8 44.3808 17.455 44.3808 17.075C44.3808 16.615 44.2158 16.215 43.8858 15.875C43.5558 15.535 43.1058 15.275 42.5358 15.095C41.9658 14.915 41.3158 14.84 40.5858 14.87C40.1058 14.88 39.6208 14.95 39.1308 15.08C38.6508 15.2 38.1558 15.375 37.6458 15.605L38.1258 16.985C38.5658 16.795 38.9958 16.65 39.4158 16.55C39.8458 16.45 40.2608 16.4 40.6608 16.4C41.0408 16.4 41.3658 16.44 41.6358 16.52C41.9058 16.59 42.1108 16.7 42.2508 16.85C42.4008 16.99 42.4758 17.155 42.4758 17.345C42.4758 17.535 42.4158 17.7 42.2958 17.84C42.1758 17.98 42.0008 18.085 41.7708 18.155C41.5508 18.225 41.2808 18.26 40.9608 18.26H39.5658V19.52H41.1108C41.6208 19.52 42.0108 19.605 42.2808 19.775C42.5608 19.935 42.7008 20.175 42.7008 20.495C42.7008 20.715 42.6158 20.91 42.4458 21.08C42.2858 21.25 42.0558 21.38 41.7558 21.47C41.4558 21.55 41.0958 21.59 40.6758 21.59C40.1858 21.59 39.6958 21.53 39.2058 21.41C38.7158 21.29 38.2758 21.12 37.8858 20.9L37.3608 22.295C37.8408 22.565 38.3758 22.775 38.9658 22.925C39.5658 23.065 40.1708 23.135 40.7808 23.135ZM46.5369 23V14.99H48.5019L51.7269 20.675H50.9469L54.3369 14.99H56.0919L56.1069 23H54.4119V17L54.7119 17.195L51.7119 22.16H50.9019L47.8869 17.06L48.2469 16.97V23H46.5369ZM59.1918 23.105C58.8518 23.105 58.5618 22.99 58.3218 22.76C58.0818 22.52 57.9618 22.22 57.9618 21.86C57.9618 21.48 58.0818 21.18 58.3218 20.96C58.5618 20.73 58.8518 20.615 59.1918 20.615C59.5318 20.615 59.8218 20.73 60.0618 20.96C60.3018 21.18 60.4218 21.48 60.4218 21.86C60.4218 22.22 60.3018 22.52 60.0618 22.76C59.8218 22.99 59.5318 23.105 59.1918 23.105ZM62.8539 23.105C62.5139 23.105 62.2239 22.99 61.9839 22.76C61.7439 22.52 61.6239 22.22 61.6239 21.86C61.6239 21.48 61.7439 21.18 61.9839 20.96C62.2239 20.73 62.5139 20.615 62.8539 20.615C63.1939 20.615 63.4839 20.73 63.7239 20.96C63.9639 21.18 64.0839 21.48 64.0839 21.86C64.0839 22.22 63.9639 22.52 63.7239 22.76C63.4839 22.99 63.1939 23.105 62.8539 23.105ZM66.516 23.105C66.176 23.105 65.886 22.99 65.646 22.76C65.406 22.52 65.286 22.22 65.286 21.86C65.286 21.48 65.406 21.18 65.646 20.96C65.886 20.73 66.176 20.615 66.516 20.615C66.856 20.615 67.146 20.73 67.386 20.96C67.626 21.18 67.746 21.48 67.746 21.86C67.746 22.22 67.626 22.52 67.386 22.76C67.146 22.99 66.856 23.105 66.516 23.105Z" fill="black"/>
</g>
<defs>
<clipPath id="clip0_178_418">
<rect width="70" height="23" fill="white"/>
</clipPath>
</defs>
</svg>
