<svg width="21" height="21" viewBox="0 0 21 21" fill="none" xmlns="http://www.w3.org/2000/svg">
<path d="M20.6926 9.3664L12.2925 1.1098C12.1456 0.965502 11.9586 0.867241 11.7549 0.827437C11.5513 0.787632 11.3402 0.80807 11.1483 0.886167C10.9565 0.964265 10.7925 1.09651 10.6771 1.2662C10.5618 1.43588 10.5002 1.63538 10.5001 1.83947V5.49818C7.63179 5.75908 4.96574 7.06266 3.02371 9.15382C1.08167 11.245 0.00343535 13.9732 0 16.8046V18.3527C0.00016575 18.5669 0.0681559 18.7758 0.19454 18.9503C0.320924 19.1249 0.499437 19.2565 0.705319 19.3268C0.911201 19.3971 1.13425 19.4027 1.34352 19.3428C1.55279 19.2829 1.73792 19.1605 1.87322 18.9926C2.90191 17.7902 4.16409 16.8013 5.586 16.0838C7.00791 15.3663 8.56105 14.9345 10.1547 14.8137C10.2072 14.8075 10.3384 14.7972 10.5001 14.7869V18.3527C10.5002 18.5568 10.5618 18.7563 10.6771 18.926C10.7925 19.0956 10.9565 19.2279 11.1483 19.306C11.3402 19.3841 11.5513 19.4045 11.7549 19.3647C11.9586 19.3249 12.1456 19.2267 12.2925 19.0824L20.6926 10.8258C20.8894 10.6322 21 10.3697 21 10.0961C21 9.82241 20.8894 9.55995 20.6926 9.3664ZM12.6001 15.8613V13.7083C12.6001 13.4346 12.4895 13.1721 12.2926 12.9786C12.0957 12.785 11.8286 12.6763 11.5501 12.6763C11.2824 12.6763 10.1893 12.7279 9.91 12.764C7.08008 13.0203 4.38634 14.0771 2.15462 15.8066C2.40793 13.5302 3.50655 11.4257 5.24014 9.89602C6.97372 8.36629 9.22044 7.51883 11.5501 7.51589C11.8286 7.51589 12.0957 7.40715 12.2926 7.2136C12.4895 7.02005 12.6001 6.75754 12.6001 6.48381V4.3309L18.4655 10.0961L12.6001 15.8613Z" fill="#2B2B2B"/>
</svg>
