<svg width="29" height="29" viewBox="0 0 29 29" fill="none" xmlns="http://www.w3.org/2000/svg">
<path d="M18.9774 7.8844C18.9774 8.13362 18.9604 8.38284 18.9293 8.62922C18.9435 8.5301 18.9576 8.42815 18.9689 8.32903C18.901 8.8218 18.7707 9.30041 18.581 9.7592C18.6178 9.66858 18.6574 9.57795 18.6942 9.48733C18.5045 9.93479 18.2609 10.3539 17.9636 10.7391L18.142 10.5097C17.8475 10.8892 17.5048 11.2319 17.1253 11.5264L17.3547 11.348C16.9695 11.6425 16.5504 11.8889 16.1029 12.0786C16.1936 12.0418 16.2842 12.0022 16.3748 11.9654C15.916 12.1551 15.4374 12.2854 14.9446 12.3533C15.0437 12.3392 15.1457 12.325 15.2448 12.3137C14.7492 12.3788 14.2508 12.3788 13.7552 12.3137C13.8543 12.3279 13.9562 12.342 14.0554 12.3533C13.5626 12.2854 13.084 12.1551 12.6252 11.9654C12.7158 12.0022 12.8064 12.0418 12.8971 12.0786C12.4496 11.8889 12.0305 11.6453 11.6453 11.348L11.8747 11.5264C11.4952 11.2319 11.1525 10.8892 10.858 10.5097L11.0364 10.7391C10.7419 10.3539 10.4955 9.93479 10.3058 9.48733C10.3426 9.57795 10.3822 9.66858 10.419 9.7592C10.2293 9.30041 10.099 8.8218 10.0311 8.32903C10.0452 8.42815 10.0594 8.5301 10.0707 8.62922C10.0056 8.13362 10.0056 7.63518 10.0707 7.13957C10.0565 7.23869 10.0424 7.34065 10.0311 7.43977C10.099 6.947 10.2293 6.46838 10.419 6.00959C10.3822 6.10022 10.3426 6.19084 10.3058 6.28147C10.4955 5.83401 10.7391 5.41487 11.0364 5.02971L10.858 5.2591C11.1525 4.87961 11.4952 4.53694 11.8747 4.24241L11.6453 4.42082C12.0305 4.12629 12.4496 3.87991 12.8971 3.69016C12.8064 3.72698 12.7158 3.76662 12.6252 3.80344C13.084 3.6137 13.5626 3.48342 14.0554 3.41545C13.9562 3.42961 13.8543 3.44377 13.7552 3.4551C14.2508 3.38996 14.7492 3.38996 15.2448 3.4551C15.1457 3.44094 15.0437 3.42678 14.9446 3.41545C15.4374 3.48342 15.916 3.6137 16.3748 3.80344C16.2842 3.76662 16.1936 3.72698 16.1029 3.69016C16.5504 3.87991 16.9695 4.12346 17.3547 4.42082L17.1253 4.24241C17.5048 4.53694 17.8475 4.87961 18.142 5.2591L17.9636 5.02971C18.2581 5.41487 18.5045 5.83401 18.6942 6.28147C18.6574 6.19084 18.6178 6.10022 18.581 6.00959C18.7707 6.46838 18.901 6.947 18.9689 7.43977C18.9548 7.34065 18.9406 7.23869 18.9293 7.13957C18.9604 7.38596 18.9746 7.63518 18.9774 7.8844C18.9803 8.47629 19.4957 9.04553 20.1102 9.01721C20.722 8.98889 21.2459 8.51877 21.2431 7.8844C21.2374 6.52785 20.8296 5.14016 20.031 4.03567C19.8157 3.7383 19.5863 3.44661 19.3314 3.18323C19.0737 2.91702 18.7905 2.68762 18.496 2.46389C17.9607 2.05608 17.3632 1.75588 16.7288 1.52366C14.1715 0.586254 11.0874 1.4217 9.35703 3.52873C9.11914 3.8176 8.89258 4.1178 8.7 4.44065C8.50742 4.76067 8.35732 5.10051 8.21855 5.44602C7.95801 6.08606 7.8249 6.76575 7.77109 7.45393C7.66631 8.80198 8.01748 10.2095 8.71982 11.365C9.39668 12.4808 10.419 13.438 11.6142 13.9789C11.9653 14.1375 12.325 14.2848 12.6988 14.3896C13.0698 14.4915 13.4465 14.5482 13.8288 14.5935C14.5255 14.6756 15.2363 14.619 15.9245 14.4802C18.5385 13.9478 20.7276 11.6963 21.1326 9.05403C21.1921 8.66887 21.2374 8.28371 21.2374 7.89289C21.2402 7.301 20.7135 6.73176 20.1046 6.76008C19.4929 6.77991 18.9774 7.25002 18.9774 7.8844ZM22.7355 25.5931H8.20439C7.56152 25.5931 6.91865 25.5988 6.27578 25.5931C6.20498 25.5931 6.13418 25.5874 6.06621 25.5789C6.16533 25.5931 6.26728 25.6072 6.3664 25.6186C6.25312 25.6016 6.14551 25.5704 6.04072 25.528C6.13135 25.5648 6.22197 25.6044 6.3126 25.6412C6.19931 25.5931 6.09453 25.5308 5.99541 25.4543L6.2248 25.6327C6.13984 25.5619 6.06054 25.4855 5.99258 25.4005L6.17099 25.6299C6.09453 25.5308 6.03506 25.426 5.98408 25.3127C6.0209 25.4033 6.06054 25.494 6.09736 25.5846C6.05488 25.4798 6.02656 25.3694 6.00674 25.2589C6.0209 25.358 6.03506 25.46 6.04638 25.5591C6.00107 25.2164 6.03222 24.8539 6.03222 24.5084V23.2963C6.03222 22.9933 6.04922 22.6931 6.08887 22.3929C6.0747 22.492 6.06054 22.594 6.04922 22.6931C6.12851 22.1125 6.28144 21.5433 6.51084 21.0024C6.47402 21.093 6.43437 21.1836 6.39756 21.2742C6.61845 20.7588 6.90166 20.2745 7.24433 19.8299L7.06592 20.0593C7.40859 19.6203 7.80224 19.2239 8.24404 18.8812L8.01465 19.0596C8.45928 18.7169 8.94355 18.4337 9.45898 18.2128C9.36836 18.2496 9.27773 18.2893 9.18711 18.3261C9.72803 18.0995 10.2944 17.9438 10.8778 17.8645C10.7787 17.8786 10.6768 17.8928 10.5776 17.9041C10.9968 17.8503 11.4131 17.8475 11.8351 17.8475H17.0177C17.485 17.8475 17.9494 17.8447 18.4167 17.9041C18.3176 17.89 18.2156 17.8758 18.1165 17.8645C18.6971 17.9438 19.2663 18.0967 19.8072 18.3261C19.7166 18.2893 19.626 18.2496 19.5353 18.2128C20.0508 18.4337 20.5351 18.7169 20.9797 19.0596L20.7503 18.8812C21.1893 19.2239 21.5857 19.6175 21.9284 20.0593L21.75 19.8299C22.0927 20.2745 22.3759 20.7588 22.5968 21.2742C22.56 21.1836 22.5203 21.093 22.4835 21.0024C22.7101 21.5433 22.8658 22.1097 22.9451 22.6931C22.931 22.594 22.9168 22.492 22.9055 22.3929C22.9593 22.8205 22.9621 23.2453 22.9621 23.6758V25.0777C22.9621 25.2391 22.9678 25.4005 22.9479 25.5591C22.9621 25.46 22.9763 25.358 22.9876 25.2589C22.9706 25.3722 22.9394 25.4798 22.897 25.5846C22.9338 25.494 22.9734 25.4033 23.0103 25.3127C22.9621 25.426 22.8998 25.5308 22.8233 25.6299L23.0018 25.4005C22.931 25.4855 22.8545 25.5648 22.7695 25.6327L22.9989 25.4543C22.8998 25.5308 22.795 25.5903 22.6817 25.6412C22.7724 25.6044 22.863 25.5648 22.9536 25.528C22.8488 25.5704 22.7384 25.5988 22.6279 25.6186C22.727 25.6044 22.829 25.5903 22.9281 25.5789C22.8658 25.5874 22.8007 25.5903 22.7355 25.5931C22.4438 25.5959 22.1436 25.7177 21.9341 25.9244C21.7387 26.1198 21.5886 26.4427 21.6027 26.7259C21.6311 27.332 22.1012 27.8672 22.7355 27.8587C23.8372 27.8417 24.8058 27.1224 25.1286 26.066C25.2561 25.6469 25.2277 25.1966 25.2277 24.7661C25.2277 23.7806 25.2589 22.8035 25.089 21.8265C24.8397 20.3963 24.1204 19.0511 23.1349 17.9947C22.1493 16.9384 20.8239 16.1624 19.4221 15.8169C18.6178 15.6187 17.8078 15.5875 16.9865 15.5875H11.9625C11.1214 15.5875 10.2859 15.6272 9.46748 15.8452C8.07695 16.2134 6.76855 16.9979 5.80283 18.0627C4.82861 19.1361 4.12344 20.4841 3.89404 21.9228C3.74111 22.8885 3.77226 23.8571 3.77226 24.8313C3.77226 25.2787 3.74678 25.746 3.9082 26.1737C4.11777 26.7231 4.45195 27.1564 4.94189 27.4821C5.32422 27.7341 5.80849 27.8559 6.26162 27.8615C6.48252 27.8644 6.70342 27.8615 6.92431 27.8615H22.7384C23.3303 27.8615 23.8995 27.3405 23.8712 26.7287C23.8429 26.1113 23.3727 25.5931 22.7355 25.5931Z" fill="#2B2B2B"/>
</svg>
