<svg width="29" height="29" viewBox="0 0 29 29" fill="none" xmlns="http://www.w3.org/2000/svg">
<path d="M19.2985 7.31743C19.2985 7.58791 19.2803 7.85838 19.2469 8.12579C19.2621 8.01821 19.2773 7.90756 19.2894 7.79999C19.2166 8.33479 19.077 8.85423 18.8736 9.35216C18.9131 9.2538 18.9556 9.15544 18.995 9.05709C18.7917 9.54272 18.5306 9.99761 18.212 10.4156L18.4032 10.1667C18.0875 10.5785 17.7203 10.9504 17.3136 11.2701L17.5594 11.0764C17.1466 11.3961 16.6974 11.6635 16.2179 11.8694C16.315 11.8295 16.4121 11.7864 16.5092 11.7465C16.0175 11.9524 15.5046 12.0938 14.9765 12.1676C15.0827 12.1522 15.192 12.1368 15.2982 12.1245C14.7671 12.1952 14.2329 12.1952 13.7017 12.1245C13.8079 12.1399 13.9172 12.1553 14.0234 12.1676C13.4953 12.0938 12.9824 11.9524 12.4907 11.7465C12.5878 11.7864 12.6849 11.8295 12.7821 11.8694C12.3025 11.6635 11.8533 11.3992 11.4405 11.0764L11.6864 11.2701C11.2797 10.9504 10.9124 10.5785 10.5968 10.1667L10.788 10.4156C10.4723 9.99761 10.2083 9.54272 10.0049 9.05709C10.0444 9.15544 10.0868 9.2538 10.1263 9.35216C9.92295 8.85423 9.78333 8.33479 9.71049 7.79999C9.72566 7.90756 9.74084 8.01821 9.75298 8.12579C9.68317 7.58791 9.68317 7.04695 9.75298 6.50907C9.73781 6.61665 9.72263 6.7273 9.71049 6.83487C9.78333 6.30007 9.92295 5.78063 10.1263 5.2827C10.0868 5.38106 10.0444 5.47941 10.0049 5.57777C10.2083 5.09214 10.4693 4.63725 10.788 4.21924L10.5968 4.4682C10.9124 4.05634 11.2797 3.68443 11.6864 3.36477L11.4405 3.55841C11.8533 3.23876 12.3025 2.97135 12.7821 2.76542C12.6849 2.80538 12.5878 2.84841 12.4907 2.88837C12.9824 2.68243 13.4953 2.54105 14.0234 2.46728C13.9172 2.48265 13.8079 2.49802 13.7017 2.51031C14.2329 2.43962 14.7671 2.43962 15.2982 2.51031C15.192 2.49494 15.0827 2.47958 14.9765 2.46728C15.5046 2.54105 16.0175 2.68243 16.5092 2.88837C16.4121 2.84841 16.315 2.80538 16.2179 2.76542C16.6974 2.97135 17.1466 3.23568 17.5594 3.55841L17.3136 3.36477C17.7203 3.68443 18.0875 4.05634 18.4032 4.4682L18.212 4.21924C18.5276 4.63725 18.7917 5.09214 18.995 5.57777C18.9556 5.47941 18.9131 5.38106 18.8736 5.2827C19.077 5.78063 19.2166 6.30007 19.2894 6.83487C19.2743 6.7273 19.2591 6.61665 19.2469 6.50907C19.2803 6.77648 19.2955 7.04695 19.2985 7.31743C19.3016 7.95981 19.854 8.57761 20.5126 8.54687C21.1682 8.51613 21.7297 8.00592 21.7267 7.31743C21.7206 5.84517 21.2835 4.33911 20.4276 3.1404C20.1969 2.81767 19.9511 2.50109 19.6779 2.21525C19.4017 1.92633 19.0982 1.67737 18.7826 1.43455C18.2089 0.991952 17.5685 0.666149 16.8886 0.414114C14.1479 -0.603249 10.8426 0.303464 8.98812 2.59023C8.73317 2.90373 8.49036 3.22954 8.28397 3.57993C8.07758 3.92724 7.91671 4.29608 7.76799 4.67106C7.48876 5.36569 7.3461 6.10336 7.28844 6.85024C7.17613 8.31328 7.55249 9.84086 8.30521 11.0949C9.03061 12.3059 10.1263 13.3448 11.4071 13.9318C11.7835 14.1039 12.169 14.2638 12.5696 14.3775C12.9672 14.4881 13.3709 14.5496 13.7806 14.5988C14.5273 14.6879 15.2891 14.6265 16.0266 14.4759C18.8281 13.898 21.1743 11.4545 21.6083 8.58683C21.672 8.16882 21.7206 7.75081 21.7206 7.32665C21.7236 6.68427 21.1591 6.06647 20.5065 6.09721C19.8509 6.11872 19.2985 6.62894 19.2985 7.31743ZM23.3262 26.5367H7.75281C7.06383 26.5367 6.37485 26.5428 5.68587 26.5367C5.61 26.5367 5.53412 26.5305 5.46127 26.5213C5.5675 26.5367 5.67677 26.552 5.783 26.5643C5.66159 26.5459 5.54626 26.5121 5.43396 26.466C5.53108 26.5059 5.62821 26.549 5.72533 26.5889C5.60392 26.5367 5.49162 26.4691 5.38539 26.3861L5.63124 26.5797C5.54019 26.5029 5.4552 26.4199 5.38236 26.3277L5.57357 26.5766C5.49162 26.4691 5.42789 26.3553 5.37325 26.2324C5.41271 26.3307 5.4552 26.4291 5.49466 26.5275C5.44913 26.4137 5.41878 26.2939 5.39753 26.174C5.41271 26.2816 5.42789 26.3922 5.44003 26.4998C5.39146 26.1279 5.42485 25.7345 5.42485 25.3595V24.044C5.42485 23.7151 5.44306 23.3893 5.48555 23.0635C5.47038 23.1711 5.4552 23.2817 5.44306 23.3893C5.52805 22.7592 5.69194 22.1414 5.93779 21.5544C5.89833 21.6527 5.85584 21.7511 5.81639 21.8494C6.05313 21.29 6.35664 20.7644 6.7239 20.2819L6.53268 20.5309C6.89994 20.0544 7.32182 19.6241 7.79531 19.2522L7.54946 19.4459C8.02598 19.074 8.54499 18.7666 9.09739 18.5269C9.00026 18.5668 8.90314 18.6099 8.80601 18.6498C9.38573 18.4039 9.99276 18.2349 10.618 18.1488C10.5118 18.1642 10.4025 18.1795 10.2963 18.1918C10.7455 18.1334 11.1916 18.1304 11.6439 18.1304H17.1982C17.699 18.1304 18.1968 18.1273 18.6976 18.1918C18.5913 18.1765 18.4821 18.1611 18.3759 18.1488C18.9981 18.2349 19.6081 18.4008 20.1878 18.6498C20.0907 18.6099 19.9936 18.5668 19.8965 18.5269C20.4489 18.7666 20.9679 19.074 21.4444 19.4459L21.1985 19.2522C21.669 19.6241 22.0939 20.0514 22.4612 20.5309L22.27 20.2819C22.6372 20.7644 22.9407 21.29 23.1775 21.8494C23.138 21.7511 23.0955 21.6527 23.0561 21.5544C23.2989 22.1414 23.4658 22.7561 23.5508 23.3893C23.5356 23.2817 23.5204 23.1711 23.5083 23.0635C23.566 23.5276 23.569 23.9887 23.569 24.4558V25.9773C23.569 26.1525 23.5751 26.3277 23.5538 26.4998C23.569 26.3922 23.5842 26.2816 23.5963 26.174C23.5781 26.2969 23.5447 26.4137 23.4992 26.5275C23.5387 26.4291 23.5811 26.3307 23.6206 26.2324C23.569 26.3553 23.5022 26.4691 23.4203 26.5766L23.6115 26.3277C23.5356 26.4199 23.4537 26.5059 23.3626 26.5797L23.6085 26.3861C23.5022 26.4691 23.3899 26.5336 23.2685 26.5889C23.3656 26.549 23.4628 26.5059 23.5599 26.466C23.4476 26.5121 23.3292 26.5428 23.2109 26.5643C23.3171 26.549 23.4263 26.5336 23.5326 26.5213C23.4658 26.5305 23.396 26.5336 23.3262 26.5367C23.0136 26.5398 22.6918 26.6719 22.4672 26.8963C22.2578 27.1084 22.097 27.4588 22.1121 27.7661C22.1425 28.4239 22.6463 29.0048 23.3262 28.9956C24.5069 28.9771 25.5449 28.1964 25.8909 27.05C26.0275 26.5951 25.9971 26.1064 25.9971 25.6392C25.9971 24.5696 26.0305 23.5092 25.8484 22.4488C25.5813 20.8966 24.8104 19.4367 23.7541 18.2902C22.6979 17.1437 21.2775 16.3016 19.7751 15.9266C18.9131 15.7114 18.045 15.6776 17.1648 15.6776H11.7805C10.879 15.6776 9.98365 15.7207 9.10649 15.9573C7.61623 16.3569 6.21399 17.2083 5.179 18.364C4.13491 19.5289 3.37916 20.9919 3.13331 22.5533C2.96941 23.6014 3.0028 24.6526 3.0028 25.7099C3.0028 26.1955 2.97548 26.7027 3.14849 27.1668C3.37309 27.763 3.73123 28.2333 4.25632 28.5868C4.66606 28.8603 5.18507 28.9925 5.6707 28.9986C5.90744 29.0017 6.14418 28.9986 6.38092 28.9986H23.3292C23.9636 28.9986 24.5736 28.4331 24.5433 27.7692C24.5129 27.0991 24.0091 26.5367 23.3262 26.5367Z" fill="#2B2B2B"/>
</svg>
